<svg xmlns="http://www.w3.org/2000/svg" version="1.1" xmlns:xlink="http://www.w3.org/1999/xlink" xmlns:svgjs="http://svgjs.dev/svgjs" width="26" height="26"><svg width="26" height="26" viewBox="0 0 26 26" fill="none" xmlns="http://www.w3.org/2000/svg">
<path d="M12.9999 25.0547C19.6577 25.0547 25.0546 19.6578 25.0546 13V4.56172C25.0546 3.60259 24.6736 2.68274 23.9954 2.00453C23.3172 1.32633 22.3973 0.945313 21.4382 0.945313L13.6027 0.945312V6.2337C13.6027 7.44037 13.6762 8.69044 14.3091 9.7175C14.7621 10.4536 15.3682 11.0836 16.0862 11.5648C16.8042 12.046 17.6173 12.3671 18.4703 12.5064L18.7012 12.5437C18.7964 12.5763 18.879 12.6377 18.9375 12.7195C18.996 12.8014 19.0274 12.8994 19.0274 13C19.0274 13.1006 18.996 13.1986 18.9375 13.2804C18.879 13.3623 18.7964 13.4237 18.7012 13.4563L18.4703 13.4936C17.224 13.6972 16.0731 14.2872 15.1801 15.1802C14.2871 16.0731 13.6972 17.2241 13.4936 18.4704L13.4562 18.7013C13.4237 18.7964 13.3622 18.879 13.2804 18.9375C13.1986 18.996 13.1005 19.0275 12.9999 19.0275C12.8994 19.0275 12.8013 18.996 12.7195 18.9375C12.6377 18.879 12.5762 18.7964 12.5437 18.7013L12.5063 18.4704C12.367 17.6174 12.0458 16.8043 11.5646 16.0863C11.0835 15.3683 10.4535 14.7622 9.71744 14.3091C8.69038 13.6763 7.44031 13.6027 6.23364 13.6027H0.959717C1.27495 19.9803 6.54465 25.0547 12.9999 25.0547Z" fill="#09090B"></path>
<path d="M0.945313 12.3973H6.2337C7.44037 12.3973 8.69044 12.3237 9.7175 11.6909C10.5204 11.1962 11.1962 10.5204 11.6909 9.7175C12.3237 8.69044 12.3973 7.44037 12.3973 6.2337V0.945312H4.56172C3.60259 0.945313 2.68274 1.32633 2.00453 2.00453C1.32633 2.68274 0.945313 3.60259 0.945312 4.56172L0.945313 12.3973Z" fill="#09090B"></path>
</svg><style>@media (prefers-color-scheme: light) { :root { filter: none; } }
@media (prefers-color-scheme: dark) { :root { filter: none; } }
</style></svg>